<svg width="1440" height="481" viewBox="0 0 1440 481" fill="none" xmlns="http://www.w3.org/2000/svg">
<path d="M0 343L24.5 317C76.5 276.5 256.5 367.2 376.5 343C496.5 318.2 571 252 749 274.5C887 274.5 961 398.5 1080 398.5C1201.5 405 1264 303 1440 344C1560 270.5 1680 147 1800 106.2C1920 65.0001 2040 82.0001 2160 130.7C2280 180 2400 261 2520 294C2640 327 2760 310 2880 326.7C3000 343 3120 392 3240 400.2C3360 408 3480 376 3600 383.8C3720 392 3840 441 3960 465.5C4080 490 4200 490 4320 424.7C4440 359 4560 229 4680 228.7C4800 229 4920 359 5040 359.3C5160 359 5280 229 5400 204.2C5520 180 5640 261 5760 318.5C5880 376 6000 408 6120 400.2C6240 392 6360 343 6480 343C6600 343 6720 392 6840 416.5C6960 441 7080 441 7200 424.7C7320 408 7440 376 7560 383.8C7680 392 7800 441 7920 441C8040 441 8160 392 8280 318.5C8400 245 8520 147 8580 98.0001L8640 49.0001V6.10352e-05H8580C8520 6.10352e-05 8400 6.10352e-05 8280 6.10352e-05C8160 6.10352e-05 8040 6.10352e-05 7920 6.10352e-05C7800 6.10352e-05 7680 6.10352e-05 7560 6.10352e-05C7440 6.10352e-05 7320 6.10352e-05 7200 6.10352e-05C7080 6.10352e-05 6960 6.10352e-05 6840 6.10352e-05C6720 6.10352e-05 6600 6.10352e-05 6480 6.10352e-05C6360 6.10352e-05 6240 6.10352e-05 6120 6.10352e-05C6000 6.10352e-05 5880 6.10352e-05 5760 6.10352e-05C5640 6.10352e-05 5520 6.10352e-05 5400 6.10352e-05C5280 6.10352e-05 5160 6.10352e-05 5040 6.10352e-05C4920 6.10352e-05 4800 6.10352e-05 4680 6.10352e-05C4560 6.10352e-05 4440 6.10352e-05 4320 6.10352e-05C4200 6.10352e-05 4080 6.10352e-05 3960 6.10352e-05C3840 6.10352e-05 3720 6.10352e-05 3600 6.10352e-05C3480 6.10352e-05 3360 6.10352e-05 3240 6.10352e-05C3120 6.10352e-05 3000 6.10352e-05 2880 6.10352e-05C2760 6.10352e-05 2640 6.10352e-05 2520 6.10352e-05C2400 6.10352e-05 2280 6.10352e-05 2160 6.10352e-05C2040 6.10352e-05 1920 6.10352e-05 1800 6.10352e-05C1680 6.10352e-05 1560 6.10352e-05 1440 6.10352e-05C1320 6.10352e-05 1200 6.10352e-05 1080 6.10352e-05C960 6.10352e-05 840 6.10352e-05 720 6.10352e-05C600 6.10352e-05 480 6.10352e-05 360 6.10352e-05C240 6.10352e-05 120 6.10352e-05 60 6.10352e-05H0V343Z" fill="url(#paint0_linear_317_198)"/>
<defs>
<linearGradient id="paint0_linear_317_198" x1="0" y1="6.10352e-05" x2="0" y2="480.578" gradientUnits="userSpaceOnUse">
<stop offset="1" stop-color="#252525"/>
</linearGradient>
</defs>
</svg>
