<svg width="1440" height="481" viewBox="0 0 1440 481" fill="none" xmlns="http://www.w3.org/2000/svg">
<g clip-path="url(#clip0_2301_2)">
<path d="M0 343L24.5 317C76.5 276.5 256.5 367.2 376.5 343C496.5 318.2 571 252 749 274.5C887 274.5 961 398.5 1080 398.5C1201.5 405 1264 303 1440 344C1560 270.5 1680 147 1800 106.2C1920 65 2040 82 2160 130.7C2280 180 2400 261 2520 294C2640 327 2760 310 2880 326.7C3000 343 3120 392 3240 400.2C3360 408 3480 376 3600 383.8C3720 392 3840 441 3960 465.5C4080 490 4200 490 4320 424.7C4440 359 4560 229 4680 228.7C4800 229 4920 359 5040 359.3C5160 359 5280 229 5400 204.2C5520 180 5640 261 5760 318.5C5880 376 6000 408 6120 400.2C6240 392 6360 343 6480 343C6600 343 6720 392 6840 416.5C6960 441 7080 441 7200 424.7C7320 408 7440 376 7560 383.8C7680 392 7800 441 7920 441C8040 441 8160 392 8280 318.5C8400 245 8520 147 8580 98L8640 49V0H8580C8520 0 8400 0 8280 0C8160 0 8040 0 7920 0C7800 0 7680 0 7560 0C7440 0 7320 0 7200 0C7080 0 6960 0 6840 0C6720 0 6600 0 6480 0C6360 0 6240 0 6120 0C6000 0 5880 0 5760 0C5640 0 5520 0 5400 0C5280 0 5160 0 5040 0C4920 0 4800 0 4680 0C4560 0 4440 0 4320 0C4200 0 4080 0 3960 0C3840 0 3720 0 3600 0C3480 0 3360 0 3240 0C3120 0 3000 0 2880 0C2760 0 2640 0 2520 0C2400 0 2280 0 2160 0C2040 0 1920 0 1800 0C1680 0 1560 0 1440 0C1320 0 1200 0 1080 0C960 0 840 0 720 0C600 0 480 0 360 0C240 0 120 0 60 0H0V343Z" fill="url(#paint0_linear_2301_2)"/>
</g>
<defs>
<linearGradient id="paint0_linear_2301_2" x1="0" y1="0" x2="0" y2="480.578" gradientUnits="userSpaceOnUse">
<stop offset="1" stop-color="#E6C65D"/>
</linearGradient>
<clipPath id="clip0_2301_2">
<rect width="1440" height="481" fill="white"/>
</clipPath>
</defs>
</svg>
